<svg xmlns="http://www.w3.org/2000/svg" xmlns:xlink="http://www.w3.org/1999/xlink" version="1.1" width="256" height="256" viewBox="0 0 256 256" xml:space="preserve">
<desc>Created with Fabric.js 1.7.22</desc>
<defs>
</defs>
<g transform="translate(128 128) scale(0.72 0.72)" style="">
	<g style="stroke: none; stroke-width: 0; stroke-dasharray: none; stroke-linecap: butt; stroke-linejoin: miter; stroke-miterlimit: 10; fill: none; fill-rule: nonzero; opacity: 1;" transform="translate(-175.05 -175.05000000000004) scale(3.89 3.89)" >
	<path d="M 61.521 39.123 h 12.193 V 12.087 c 0 -1.832 -1.485 -3.317 -3.317 -3.317 h -36.68 V 0.816 c 0 -0.722 -0.87 -1.087 -1.385 -0.581 l -5.322 4.319 c -0.182 0.148 -0.443 0.148 -0.625 0 l -5.323 -4.319 c -0.515 -0.506 -1.385 -0.142 -1.385 0.581 v 7.953 h -4.33 c -1.832 0 -3.317 1.485 -3.317 3.317 v 74.596 c 0 1.832 1.485 3.317 3.317 3.317 h 55.05 c 1.832 0 3.317 -1.485 3.317 -3.317 V 59.059 H 61.521 c -5.272 0 -9.562 -4.289 -9.562 -9.562 v -0.813 C 51.959 43.413 56.248 39.123 61.521 39.123 z M 44.974 64.803 c -0.072 1.083 -0.728 2.041 -1.712 2.5 c -0.4 0.187 -0.83 0.278 -1.256 0.278 c -0.622 0 -1.239 -0.194 -1.758 -0.575 l -6.563 -4.804 c -0.405 -0.298 -0.729 -0.692 -0.939 -1.142 L 20.614 35.042 c -0.693 -1.486 -0.048 -3.26 1.438 -3.954 l 7.103 -3.312 c 1.487 -0.693 3.261 -0.047 3.954 1.439 L 45.24 55.232 c 0.211 0.454 0.305 0.957 0.272 1.455 L 44.974 64.803 z" style="stroke: none; stroke-width: 1; stroke-dasharray: none; stroke-linecap: butt; stroke-linejoin: miter; stroke-miterlimit: 10; fill: rgb(253,126,20); fill-rule: nonzero; opacity: 1;" transform=" matrix(1 0 0 1 0 0) " stroke-linecap="round" />
	<polygon points="30.39,30.48 23.32,33.81 24.75,36.86 31.82,33.56 " style="stroke: none; stroke-width: 1; stroke-dasharray: none; stroke-linecap: butt; stroke-linejoin: miter; stroke-miterlimit: 10; fill: rgb(253,126,20); fill-rule: nonzero; opacity: 1;" transform="  matrix(1 0 0 1 0 0) "/>
	<polygon points="26.02,39.58 35.46,59.79 42.02,64.59 42.52,56.49 33.09,36.28 " style="stroke: none; stroke-width: 1; stroke-dasharray: none; stroke-linecap: butt; stroke-linejoin: miter; stroke-miterlimit: 10; fill: rgb(253,126,20); fill-rule: nonzero; opacity: 1;" transform="  matrix(1 0 0 1 0 0) "/>
	<path d="M 61.521 42.449 c -3.438 0 -6.235 2.797 -6.235 6.235 v 0.813 c 0 3.438 2.797 6.235 6.235 6.235 h 12.193 V 42.449 H 61.521 z M 62.097 51.743 c -1.465 0 -2.652 -1.187 -2.652 -2.652 c 0 -1.465 1.187 -2.652 2.652 -2.652 c 1.465 0 2.652 1.187 2.652 2.652 C 64.749 50.555 63.561 51.743 62.097 51.743 z" style="stroke: none; stroke-width: 1; stroke-dasharray: none; stroke-linecap: butt; stroke-linejoin: miter; stroke-miterlimit: 10; fill: rgb(253,126,20); fill-rule: nonzero; opacity: 1;" transform=" matrix(1 0 0 1 0 0) " stroke-linecap="round" />
</g>
</g>
</svg>